<svg width="313" height="301" viewBox="0 0 313 301" fill="none" xmlns="http://www.w3.org/2000/svg">
<path d="M159.867 219.734C196.244 219.734 225.734 190.244 225.734 153.867C225.734 117.49 196.244 88 159.867 88C123.49 88 94 117.49 94 153.867C94 190.244 123.49 219.734 159.867 219.734Z" fill="#FEB137"/>
<path d="M152.611 61.7537C146.412 62.2963 140.948 57.7104 140.405 51.5123L136.969 12.2494C136.427 6.05047 141.013 0.586264 147.211 0.0436005C153.41 -0.499063 158.874 4.08687 159.416 10.2849L162.852 49.5479C163.395 55.7468 158.81 61.2118 152.611 61.7537V61.7537Z" fill="#FFD15B"/>
<path d="M152.611 61.7537C146.412 62.2963 140.948 57.7104 140.405 51.5123L136.969 12.2494C136.427 6.05047 141.013 0.586264 147.211 0.0436005C153.41 -0.499063 158.874 4.08687 159.416 10.2849L162.852 49.5479C163.395 55.7468 158.81 61.2118 152.611 61.7537V61.7537Z" fill="#FFD15B"/>
<path d="M250.725 144.079C250.183 137.88 254.769 132.416 260.967 131.874L300.23 128.438C306.428 127.895 311.893 132.481 312.435 138.679C312.978 144.878 308.392 150.343 302.194 150.885L262.931 154.321C256.732 154.863 251.267 150.278 250.725 144.079Z" fill="#FFD15B"/>
<path d="M229.88 210.187C233.88 205.42 240.987 204.798 245.753 208.798L275.945 234.132C280.711 238.132 281.333 245.239 277.333 250.005C273.334 254.771 266.227 255.393 261.461 251.393L231.269 226.059C226.502 222.059 225.881 214.954 229.88 210.187Z" fill="#FFD15B"/>
<path d="M229.88 210.187C233.88 205.42 240.987 204.798 245.753 208.798L275.945 234.132C280.711 238.132 281.333 245.239 277.333 250.005C273.334 254.771 266.227 255.393 261.461 251.393L231.269 226.059C226.502 222.059 225.881 214.954 229.88 210.187Z" fill="#FFD15B"/>
<path d="M43.6753 53.9421C47.6751 49.1758 54.7815 48.5539 59.5478 52.5537L89.7399 77.8878C94.5062 81.8876 95.1282 88.994 91.1283 93.7603C87.1285 98.5265 80.0221 99.1485 75.2558 95.1486L45.0637 69.8146C40.2974 65.8147 39.6754 58.7084 43.6753 53.9421V53.9421Z" fill="#FFD15B"/>
<path d="M258.536 35.144C263.302 39.1439 263.924 46.2503 259.925 51.0165L234.59 81.2087C230.591 85.975 223.484 86.5969 218.718 82.5971C213.952 78.5972 213.33 71.4908 217.33 66.7246L242.664 36.5324C246.663 31.7662 253.77 31.1442 258.536 35.144V35.144Z" fill="#FFD15B"/>
<path d="M159.868 238.611C166.067 238.068 171.531 242.654 172.074 248.852L175.509 288.115C176.052 294.314 171.466 299.778 165.268 300.321C159.069 300.863 153.605 296.277 153.062 290.079L149.627 250.816C149.084 244.617 153.669 239.152 159.868 238.611V238.611Z" fill="#FFD15B"/>
<path d="M61.7533 156.285C62.2959 162.484 57.71 167.948 51.512 168.491L12.249 171.926C6.05009 172.469 0.585887 167.883 0.0432235 161.685C-0.49944 155.486 4.08649 150.022 10.2845 149.479L49.5475 146.044C55.7464 145.501 61.2114 150.086 61.7533 156.285Z" fill="#FFD15B"/>
<path d="M53.9424 265.22C49.1761 261.22 48.5541 254.114 52.554 249.348L77.888 219.156C81.8879 214.389 88.9943 213.767 93.7605 217.767C98.5268 221.767 99.1488 228.873 95.1489 233.64L69.8149 263.832C65.815 268.598 58.7086 269.22 53.9424 265.22V265.22Z" fill="#FFD15B"/>
</svg>
