<svg width="428" height="334" viewBox="0 0 428 334" fill="none" xmlns="http://www.w3.org/2000/svg">
<path d="M275.632 219.588C312.01 219.588 341.499 190.098 341.499 153.721C341.499 117.344 312.01 87.854 275.632 87.854C239.255 87.854 209.766 117.344 209.766 153.721C209.766 190.098 239.255 219.588 275.632 219.588Z" fill="#FEB137"/>
<path d="M267.585 61.7537C261.386 62.2963 255.922 57.7104 255.379 51.5123L251.944 12.2494C251.401 6.05047 255.987 0.586264 262.185 0.0436005C268.384 -0.499063 273.848 4.08687 274.391 10.2849L277.827 49.5479C278.369 55.7468 273.784 61.2118 267.585 61.7537V61.7537Z" fill="#FFD15B"/>
<path d="M267.585 61.7537C261.386 62.2963 255.922 57.7104 255.379 51.5123L251.944 12.2494C251.401 6.05047 255.987 0.586264 262.185 0.0436005C268.384 -0.499063 273.848 4.08687 274.391 10.2849L277.827 49.5479C278.369 55.7468 273.784 61.2118 267.585 61.7537V61.7537Z" fill="#FFD15B"/>
<path d="M365.7 144.079C365.157 137.88 369.743 132.416 375.941 131.874L415.204 128.438C421.403 127.895 426.867 132.481 427.41 138.679C427.953 144.878 423.367 150.343 417.169 150.885L377.906 154.321C371.707 154.863 366.242 150.278 365.7 144.079Z" fill="#FFD15B"/>
<path d="M344.855 210.187C348.855 205.42 355.961 204.798 360.727 208.798L390.92 234.132C395.686 238.132 396.308 245.239 392.308 250.005C388.308 254.771 381.202 255.393 376.436 251.393L346.243 226.059C341.477 222.059 340.855 214.954 344.855 210.187Z" fill="#FFD15B"/>
<path d="M344.855 210.187C348.855 205.42 355.961 204.798 360.727 208.798L390.92 234.132C395.686 238.132 396.308 245.239 392.308 250.005C388.308 254.771 381.202 255.393 376.436 251.393L346.243 226.059C341.477 222.059 340.855 214.954 344.855 210.187Z" fill="#FFD15B"/>
<path d="M158.65 53.9421C162.65 49.1758 169.756 48.5539 174.522 52.5537L204.715 77.8878C209.481 81.8876 210.103 88.994 206.103 93.7603C202.103 98.5265 194.997 99.1485 190.23 95.1486L160.038 69.8146C155.272 65.8147 154.65 58.7084 158.65 53.9421V53.9421Z" fill="#FFD15B"/>
<path d="M373.511 35.144C378.277 39.1439 378.899 46.2503 374.899 51.0165L349.565 81.2087C345.565 85.975 338.459 86.5969 333.693 82.5971C328.926 78.5972 328.304 71.4908 332.304 66.7246L357.638 36.5324C361.638 31.7662 368.744 31.1442 373.511 35.144V35.144Z" fill="#FFD15B"/>
<path d="M300.511 233.276C303.38 193.1 266.389 162.13 227.557 171.557C219.684 136.086 188.044 109.56 150.203 109.56C105.356 109.56 69.1938 146.826 71.0347 192.077C32.2793 191.941 0 223.464 0 263.037C0 301.307 30.2948 332.495 68.2104 333.941V334H296.172C324.04 334 346.632 311.407 346.632 283.539C346.632 257.132 326.346 235.478 300.511 233.276V233.276Z" fill="#D8ECFE"/>
<path d="M300.511 233.276C303.381 193.1 266.389 162.13 227.557 171.557C219.684 136.086 188.045 109.56 150.203 109.56C140.527 109.56 131.257 111.298 122.684 114.474C159.751 115.273 190.549 141.507 198.301 176.433C237.133 167.007 274.124 197.976 271.255 238.153C297.091 240.355 317.376 262.009 317.376 288.415C317.376 308.532 305.602 325.895 288.571 334H296.172C324.04 334 346.632 311.408 346.632 283.539C346.633 257.132 326.346 235.478 300.511 233.276Z" fill="#C4E2FF"/>
</svg>
