<svg width="358" height="277" viewBox="0 0 358 277" fill="none" xmlns="http://www.w3.org/2000/svg">
<path d="M284.392 164.797C315.92 165.128 344.72 146.961 358 118.366C349.642 122.013 340.59 123.799 331.474 123.6C295.737 123.56 266.777 94.5999 266.737 58.8636C267.095 34.6907 280.432 12.5797 301.647 0.986101C295.926 0.25764 290.16 -0.0685158 284.392 0.0119454C238.887 0.0119454 202 36.9006 202 82.4043C202 127.909 238.887 164.797 284.392 164.797V164.797Z" fill="#F1F1F1"/>
<path d="M300.511 176.276C303.38 136.1 266.389 105.13 227.557 114.557C219.684 79.0858 188.044 52.5596 150.203 52.5596C105.356 52.5596 69.1938 89.8255 71.0347 135.077C32.2793 134.941 0 166.464 0 206.037C0 244.307 30.2948 275.495 68.2104 276.941V277H296.172C324.04 277 346.632 254.407 346.632 226.539C346.632 200.132 326.346 178.478 300.511 176.276V176.276Z" fill="#D8ECFE"/>
<path d="M300.511 176.276C303.381 136.1 266.389 105.13 227.557 114.557C219.684 79.0858 188.045 52.5596 150.203 52.5596C140.527 52.5596 131.257 54.2978 122.684 57.4736C159.751 58.2726 190.549 84.5074 198.301 119.433C237.133 110.007 274.124 140.976 271.255 181.153C297.091 183.355 317.376 205.009 317.376 231.415C317.376 251.532 305.602 268.895 288.571 277H296.172C324.04 277 346.632 254.408 346.632 226.539C346.633 200.132 326.346 178.478 300.511 176.276Z" fill="#C4E2FF"/>
</svg>
