<svg width="395" height="251" viewBox="0 0 395 251" fill="none" xmlns="http://www.w3.org/2000/svg">
<path d="M357.744 99.9349C360.062 67.4815 330.182 42.4653 298.814 50.0797C292.455 21.4272 266.897 0 236.33 0C200.104 0 170.893 30.1025 172.38 66.6554C141.074 66.5455 115 92.0088 115 123.975C115 154.888 139.471 180.081 170.098 181.249V181.297H354.24C376.751 181.297 395 163.047 395 140.536C395 119.205 378.613 101.713 357.744 99.9349V99.9349Z" fill="#D8ECFE"/>
<path d="M357.744 99.9349C360.062 67.4815 330.181 42.4653 298.814 50.0797C292.454 21.4272 266.896 0 236.329 0C228.513 0 221.025 1.40407 214.1 3.96942C244.042 4.61481 268.92 25.8066 275.181 54.0188C306.549 46.4043 336.429 71.4206 334.112 103.874C354.981 105.653 371.367 123.144 371.367 144.475C371.367 160.724 361.856 174.75 348.099 181.297H354.239C376.75 181.297 394.999 163.048 394.999 140.536C395 119.205 378.613 101.713 357.744 99.9349Z" fill="#C4E2FF"/>
<path d="M300.511 150.276C303.38 110.1 266.389 79.1304 227.557 88.5568C219.684 53.0858 188.044 26.5596 150.203 26.5596C105.356 26.5596 69.1938 63.8255 71.0347 109.077C32.2793 108.941 0 140.464 0 180.037C0 218.307 30.2948 249.495 68.2104 250.941V251H296.172C324.04 251 346.632 228.407 346.632 200.539C346.632 174.132 326.346 152.478 300.511 150.276V150.276Z" fill="#D8ECFE"/>
<path d="M300.511 150.276C303.381 110.1 266.389 79.1304 227.557 88.5568C219.684 53.0858 188.045 26.5596 150.203 26.5596C140.527 26.5596 131.257 28.2978 122.684 31.4736C159.751 32.2726 190.549 58.5074 198.301 93.4333C237.133 84.0068 274.124 114.976 271.255 155.153C297.091 157.355 317.376 179.009 317.376 205.415C317.376 225.532 305.602 242.895 288.571 251H296.172C324.04 251 346.632 228.408 346.632 200.539C346.633 174.132 326.346 152.478 300.511 150.276Z" fill="#C4E2FF"/>
</svg>
