<svg width="347" height="378" viewBox="0 0 347 378" fill="none" xmlns="http://www.w3.org/2000/svg">
<path d="M300.511 183.276C303.381 143.1 266.389 112.13 227.557 121.557C219.684 86.0858 188.045 59.5596 150.203 59.5596C140.527 59.5596 131.257 61.2978 122.684 64.4736C159.751 65.2726 190.549 91.5074 198.301 126.433C237.133 117.007 274.124 147.976 271.255 188.153C297.091 190.355 317.376 212.009 317.376 238.415C317.376 258.532 305.602 275.895 288.571 284H296.172C324.04 284 346.632 261.408 346.632 233.539C346.633 207.132 326.346 185.478 300.511 183.276Z" fill="#C4E2FF"/>
<path d="M77.3252 334.438C76.0303 333.226 74.0182 333.226 72.7229 334.438C60.5737 345.805 55.5061 358.128 59.1675 367.403C61.5677 373.482 67.4954 377.112 75.0243 377.112C82.5531 377.112 88.4804 373.482 90.8806 367.403C94.5419 358.128 89.4743 345.805 77.3252 334.438Z" fill="#81EBEB"/>
<path d="M112.823 303.908C111.529 302.697 109.516 302.697 108.221 303.908C100.579 311.058 97.4435 318.939 99.832 324.99C101.472 329.143 105.468 331.622 110.522 331.622C115.577 331.622 119.573 329.142 121.213 324.99C123.601 318.939 120.465 311.058 112.823 303.908V303.908Z" fill="#00CEC8"/>
<path d="M237.278 334.438C235.983 333.226 233.971 333.226 232.676 334.438C220.527 345.805 215.459 358.128 219.121 367.403C221.521 373.482 227.448 377.112 234.977 377.112C242.506 377.112 248.434 373.482 250.834 367.403C254.495 358.128 249.427 345.805 237.278 334.438Z" fill="#81EBEB"/>
<path d="M157.302 328.32C156.007 327.108 153.995 327.108 152.699 328.32C138.707 341.412 132.849 355.552 137.031 366.144C139.742 373.012 146.46 377.112 155.001 377.112C163.542 377.112 170.259 373.012 172.97 366.145C177.152 355.552 171.295 341.412 157.302 328.32V328.32Z" fill="#81EBEB"/>
<path d="M202.678 308.398C201.384 307.187 199.371 307.187 198.076 308.398C188.927 316.958 185.145 326.324 187.96 333.452C189.853 338.249 194.496 341.113 200.377 341.113C206.258 341.113 210.901 338.25 212.794 333.452C215.609 326.324 211.827 316.958 202.678 308.398Z" fill="#00CEC8"/>
<path d="M273.392 164.797C304.92 165.128 333.72 146.961 347 118.366C338.642 122.013 329.59 123.799 320.474 123.6C284.737 123.56 255.777 94.5999 255.737 58.8636C256.095 34.6907 269.432 12.5797 290.647 0.986101C284.926 0.25764 279.16 -0.0685158 273.392 0.0119454C227.887 0.0119454 191 36.9006 191 82.4043C191 127.909 227.887 164.797 273.392 164.797V164.797Z" fill="#F1F1F1"/>
<path d="M300.511 183.276C303.38 143.1 266.389 112.13 227.557 121.557C219.684 86.0858 188.044 59.5596 150.203 59.5596C105.356 59.5596 69.1938 96.8255 71.0347 142.077C32.2793 141.941 0 173.464 0 213.037C0 251.307 30.2948 282.495 68.2104 283.941V284H296.172C324.04 284 346.632 261.407 346.632 233.539C346.632 207.132 326.346 185.478 300.511 183.276V183.276Z" fill="#D8ECFE"/>
</svg>
