<svg width="395" height="365" viewBox="0 0 395 365" fill="none" xmlns="http://www.w3.org/2000/svg">
<path d="M119.325 165.438C118.03 164.226 116.018 164.226 114.723 165.438C102.574 176.805 97.5061 189.128 101.167 198.403C103.568 204.482 109.495 208.112 117.024 208.112C124.553 208.112 130.48 204.482 132.881 198.403C136.542 189.128 131.474 176.805 119.325 165.438Z" fill="#81EBEB"/>
<path d="M154.823 134.908C153.529 133.697 151.516 133.697 150.221 134.908C142.579 142.058 139.443 149.939 141.832 155.99C143.472 160.143 147.468 162.622 152.522 162.622C157.577 162.622 161.573 160.142 163.213 155.99C165.601 149.939 162.465 142.058 154.823 134.908V134.908Z" fill="#00CEC8"/>
<path d="M279.278 165.438C277.983 164.226 275.971 164.226 274.676 165.438C262.527 176.805 257.459 189.128 261.121 198.403C263.521 204.482 269.448 208.112 276.977 208.112C284.506 208.112 290.434 204.482 292.834 198.403C296.495 189.128 291.427 176.805 279.278 165.438Z" fill="#81EBEB"/>
<path d="M199.302 159.32C198.007 158.108 195.995 158.108 194.699 159.32C180.707 172.412 174.849 186.552 179.031 197.144C181.742 204.012 188.46 208.112 197.001 208.112C205.542 208.112 212.259 204.012 214.97 197.145C219.152 186.552 213.295 172.412 199.302 159.32V159.32Z" fill="#81EBEB"/>
<path d="M244.678 139.398C243.384 138.186 241.371 138.186 240.076 139.398C230.927 147.957 227.145 157.323 229.96 164.451C231.853 169.249 236.496 172.113 242.377 172.113C248.258 172.113 252.901 169.249 254.794 164.451C257.609 157.323 253.827 147.957 244.678 139.398Z" fill="#00CEC8"/>
<path d="M119.325 165.438C118.03 164.226 116.018 164.226 114.723 165.438C102.574 176.805 97.5061 189.128 101.167 198.403C103.568 204.482 109.495 208.112 117.024 208.112C124.553 208.112 130.48 204.482 132.881 198.403C136.542 189.128 131.474 176.805 119.325 165.438Z" fill="#81EBEB"/>
<path d="M154.823 134.908C153.529 133.697 151.516 133.697 150.221 134.908C142.579 142.058 139.443 149.939 141.832 155.99C143.472 160.143 147.468 162.622 152.522 162.622C157.577 162.622 161.573 160.142 163.213 155.99C165.601 149.939 162.465 142.058 154.823 134.908V134.908Z" fill="#00CEC8"/>
<path d="M279.278 165.438C277.983 164.226 275.971 164.226 274.676 165.438C262.527 176.805 257.459 189.128 261.121 198.403C263.521 204.482 269.448 208.112 276.977 208.112C284.506 208.112 290.434 204.482 292.834 198.403C296.495 189.128 291.427 176.805 279.278 165.438Z" fill="#81EBEB"/>
<path d="M199.302 159.32C198.007 158.108 195.995 158.108 194.699 159.32C180.707 172.412 174.849 186.552 179.031 197.144C181.742 204.012 188.46 208.112 197.001 208.112C205.542 208.112 212.259 204.012 214.97 197.145C219.152 186.552 213.295 172.412 199.302 159.32V159.32Z" fill="#81EBEB"/>
<path d="M244.678 139.398C243.384 138.186 241.371 138.186 240.076 139.398C230.927 147.957 227.145 157.323 229.96 164.451C231.853 169.249 236.496 172.113 242.377 172.113C248.258 172.113 252.901 169.249 254.794 164.451C257.609 157.323 253.827 147.957 244.678 139.398Z" fill="#00CEC8"/>
<path d="M357.744 99.9349C360.062 67.4815 330.182 42.4653 298.814 50.0797C292.455 21.4272 266.897 0 236.33 0C200.104 0 170.893 30.1025 172.38 66.6554C141.074 66.5455 115 92.0088 115 123.975C115 154.888 139.471 180.081 170.098 181.249V181.297H354.24C376.751 181.297 395 163.047 395 140.536C395 119.205 378.613 101.713 357.744 99.9349V99.9349Z" fill="#AEBAC5"/>
<path d="M357.744 99.9349C360.062 67.4815 330.181 42.4653 298.814 50.0797C292.454 21.4272 266.896 0 236.329 0C228.513 0 221.025 1.40407 214.1 3.96942C244.042 4.61481 268.92 25.8066 275.181 54.0188C306.549 46.4043 336.429 71.4206 334.112 103.874C354.981 105.653 371.367 123.144 371.367 144.475C371.367 160.724 361.856 174.75 348.099 181.297H354.239C376.75 181.297 394.999 163.048 394.999 140.536C395 119.205 378.613 101.713 357.744 99.9349Z" fill="#7F93A7"/>
<path d="M300.511 150.276C303.38 110.1 266.389 79.1304 227.557 88.5568C219.684 53.0858 188.044 26.5596 150.203 26.5596C105.356 26.5596 69.1938 63.8255 71.0347 109.077C32.2793 108.941 0 140.464 0 180.037C0 218.307 30.2948 249.495 68.2104 250.941V251H296.172C324.04 251 346.632 228.407 346.632 200.539C346.632 174.132 326.346 152.478 300.511 150.276V150.276Z" fill="#D8ECFE"/>
<path d="M300.511 150.276C303.381 110.1 266.389 79.1304 227.557 88.5568C219.684 53.0858 188.045 26.5596 150.203 26.5596C140.527 26.5596 131.257 28.2978 122.684 31.4736C159.751 32.2726 190.549 58.5074 198.301 93.4333C237.133 84.0068 274.124 114.976 271.255 155.153C297.091 157.355 317.376 179.009 317.376 205.415C317.376 225.532 305.602 242.895 288.571 251H296.172C324.04 251 346.632 228.408 346.632 200.539C346.633 174.132 326.346 152.478 300.511 150.276Z" fill="#C4E2FF"/>
<path d="M175.291 258.314L146.21 250.049L167.673 174.53L96.9111 268.686L125.992 276.951L104.53 352.47L175.291 258.314Z" fill="#F8E99B"/>
<path d="M146.209 250.049L167.672 174.53L157.563 187.981L114.637 339.019L175.29 258.314L146.209 250.049Z" fill="#F5D460"/>
</svg>
