<svg width="395" height="338" viewBox="0 0 395 338" fill="none" xmlns="http://www.w3.org/2000/svg">
<path d="M357.744 99.9349C360.062 67.4815 330.182 42.4653 298.814 50.0797C292.455 21.4272 266.897 0 236.33 0C200.104 0 170.893 30.1025 172.38 66.6554C141.074 66.5455 115 92.0088 115 123.975C115 154.888 139.471 180.081 170.098 181.249V181.297H354.24C376.751 181.297 395 163.047 395 140.536C395 119.205 378.613 101.713 357.744 99.9349V99.9349Z" fill="#D8ECFE"/>
<path d="M357.744 99.9349C360.062 67.4815 330.181 42.4653 298.814 50.0797C292.454 21.4272 266.896 0 236.329 0C228.513 0 221.025 1.40407 214.1 3.96942C244.042 4.61481 268.92 25.8066 275.181 54.0188C306.549 46.4043 336.429 71.4206 334.112 103.874C354.981 105.653 371.367 123.144 371.367 144.475C371.367 160.724 361.856 174.75 348.099 181.297H354.239C376.75 181.297 394.999 163.048 394.999 140.536C395 119.205 378.613 101.713 357.744 99.9349Z" fill="#C4E2FF"/>
<path d="M300.511 150.276C303.38 110.1 266.389 79.1304 227.557 88.5568C219.684 53.0858 188.044 26.5596 150.203 26.5596C105.356 26.5596 69.1938 63.8255 71.0347 109.077C32.2793 108.941 0 140.464 0 180.037C0 218.307 30.2948 249.495 68.2104 250.941V251H296.172C324.04 251 346.632 228.407 346.632 200.539C346.632 174.132 326.346 152.478 300.511 150.276V150.276Z" fill="#D8ECFE"/>
<path d="M300.511 150.276C303.381 110.1 266.389 79.1304 227.557 88.5568C219.684 53.0858 188.045 26.5596 150.203 26.5596C140.527 26.5596 131.257 28.2978 122.684 31.4736C159.751 32.2726 190.549 58.5074 198.301 93.4333C237.133 84.0068 274.124 114.976 271.255 155.153C297.091 157.355 317.376 179.009 317.376 205.415C317.376 225.532 305.602 242.895 288.571 251H296.172C324.04 251 346.632 228.408 346.632 200.539C346.633 174.132 326.346 152.478 300.511 150.276Z" fill="#C4E2FF"/>
<path d="M88.7055 317.411C86.4327 317.411 84.5879 315.571 84.5879 313.294V272.118C84.5879 269.841 86.4327 268 88.7055 268C90.9783 268 92.8231 269.841 92.8231 272.118V313.294C92.8231 315.571 90.9783 317.411 88.7055 317.411Z" fill="#E0F2FF"/>
<path d="M109.294 296.823H68.1176C65.8448 296.823 64 294.983 64 292.705C64 290.428 65.8448 288.588 68.1176 288.588H109.294C111.566 288.588 113.411 290.428 113.411 292.705C113.411 294.983 111.567 296.823 109.294 296.823Z" fill="#E0F2FF"/>
<path d="M76.3548 309.177C75.3005 309.177 74.2466 308.773 73.4438 307.97C71.8338 306.36 71.8338 303.757 73.4438 302.147L98.1494 277.442C99.7551 275.832 102.366 275.832 103.972 277.442C105.582 279.052 105.582 281.654 103.972 283.264L79.2658 307.97C78.4629 308.773 77.4086 309.177 76.3548 309.177Z" fill="#E0F2FF"/>
<path d="M101.06 309.177C100.006 309.177 98.9523 308.773 98.1494 307.97L73.4438 283.264C71.8338 281.654 71.8338 279.052 73.4438 277.442C75.0494 275.832 77.6601 275.832 79.2662 277.442L103.972 302.147C105.582 303.757 105.582 306.36 103.972 307.97C103.169 308.773 102.114 309.177 101.06 309.177Z" fill="#E0F2FF"/>
<path d="M142.233 338C139.96 338 138.115 336.16 138.115 333.883V292.706C138.115 290.429 139.96 288.589 142.233 288.589C144.506 288.589 146.35 290.429 146.35 292.706V333.883C146.35 336.16 144.506 338 142.233 338Z" fill="#366DB6"/>
<path d="M162.821 317.412H121.645C119.372 317.412 117.527 315.571 117.527 313.294C117.527 311.017 119.372 309.177 121.645 309.177H162.821C165.094 309.177 166.939 311.017 166.939 313.294C166.939 315.571 165.094 317.412 162.821 317.412Z" fill="#366DB6"/>
<path d="M129.878 329.765C128.824 329.765 127.77 329.362 126.967 328.559C125.357 326.949 125.357 324.346 126.967 322.736L151.673 298.031C153.279 296.421 155.889 296.421 157.495 298.031C159.105 299.641 159.105 302.243 157.495 303.853L132.79 328.559C131.986 329.362 130.933 329.765 129.878 329.765Z" fill="#366DB6"/>
<path d="M154.584 329.765C153.53 329.765 152.476 329.362 151.673 328.559L126.967 303.853C125.357 302.243 125.357 299.641 126.967 298.031C128.573 296.421 131.184 296.421 132.79 298.031L157.495 322.736C159.105 324.346 159.105 326.949 157.495 328.559C156.692 329.362 155.638 329.765 154.584 329.765Z" fill="#366DB6"/>
<path d="M249.291 338C247.019 338 245.174 336.16 245.174 333.883V292.706C245.174 290.429 247.019 288.589 249.291 288.589C251.564 288.589 253.409 290.429 253.409 292.706V333.883C253.409 336.16 251.565 338 249.291 338Z" fill="#366DB6"/>
<path d="M269.878 317.412H228.702C226.429 317.412 224.584 315.571 224.584 313.294C224.584 311.017 226.429 309.177 228.702 309.177H269.878C272.15 309.177 273.995 311.017 273.995 313.294C273.995 315.571 272.15 317.412 269.878 317.412Z" fill="#366DB6"/>
<path d="M236.939 329.765C235.884 329.765 234.831 329.362 234.028 328.559C232.418 326.949 232.418 324.346 234.028 322.736L258.733 298.031C260.339 296.421 262.95 296.421 264.556 298.031C266.166 299.641 266.166 302.243 264.556 303.853L239.85 328.559C239.047 329.362 237.993 329.765 236.939 329.765Z" fill="#366DB6"/>
<path d="M261.644 329.765C260.59 329.765 259.536 329.362 258.733 328.559L234.028 303.853C232.418 302.243 232.418 299.641 234.028 298.031C235.633 296.421 238.244 296.421 239.85 298.031L264.556 322.736C266.166 324.346 266.166 326.949 264.556 328.559C263.753 329.362 262.699 329.765 261.644 329.765Z" fill="#366DB6"/>
<path d="M195.762 317.411C193.489 317.411 191.645 315.571 191.645 313.294V272.118C191.645 269.841 193.489 268 195.762 268C198.035 268 199.88 269.841 199.88 272.118V313.294C199.88 315.571 198.035 317.411 195.762 317.411Z" fill="#E0F2FF"/>
<path d="M216.35 296.823H175.174C172.901 296.823 171.057 294.983 171.057 292.705C171.057 290.428 172.901 288.588 175.174 288.588H216.35C218.623 288.588 220.468 290.428 220.468 292.705C220.468 294.983 218.623 296.823 216.35 296.823Z" fill="#E0F2FF"/>
<path d="M183.408 309.177C182.353 309.177 181.299 308.773 180.497 307.97C178.887 306.36 178.887 303.757 180.497 302.147L205.202 277.442C206.808 275.832 209.418 275.832 211.025 277.442C212.635 279.052 212.635 281.654 211.025 283.264L186.319 307.97C185.516 308.773 184.461 309.177 183.408 309.177Z" fill="#E0F2FF"/>
<path d="M208.099 309.259C207.045 309.259 205.991 308.855 205.188 308.052L180.483 283.346C178.873 281.736 178.873 279.134 180.483 277.524C182.089 275.914 184.699 275.914 186.305 277.524L211.011 302.23C212.621 303.839 212.621 306.442 211.011 308.052C210.208 308.855 209.153 309.259 208.099 309.259Z" fill="#E0F2FF"/>
</svg>
