<svg width="415" height="301" viewBox="0 0 415 301" fill="none" xmlns="http://www.w3.org/2000/svg">
<path d="M190.867 219.734C227.244 219.734 256.734 190.244 256.734 153.867C256.734 117.49 227.244 88 190.867 88C154.49 88 125 117.49 125 153.867C125 190.244 154.49 219.734 190.867 219.734Z" fill="#FEB137"/>
<path d="M183.611 61.7537C177.412 62.2963 171.948 57.7104 171.405 51.5123L167.969 12.2494C167.427 6.05047 172.013 0.586264 178.211 0.0436005C184.41 -0.499063 189.874 4.08687 190.416 10.2849L193.852 49.5479C194.395 55.7468 189.81 61.2118 183.611 61.7537V61.7537Z" fill="#FFD15B"/>
<path d="M183.611 61.7537C177.412 62.2963 171.948 57.7104 171.405 51.5123L167.969 12.2494C167.427 6.05047 172.013 0.586264 178.211 0.0436005C184.41 -0.499063 189.874 4.08687 190.416 10.2849L193.852 49.5479C194.395 55.7468 189.81 61.2118 183.611 61.7537V61.7537Z" fill="#FFD15B"/>
<path d="M281.725 144.079C281.183 137.88 285.769 132.416 291.967 131.874L331.23 128.438C337.428 127.895 342.893 132.481 343.435 138.679C343.978 144.878 339.392 150.343 333.194 150.885L293.931 154.321C287.732 154.863 282.267 150.278 281.725 144.079Z" fill="#FFD15B"/>
<path d="M260.88 210.187C264.88 205.42 271.987 204.798 276.753 208.798L306.945 234.132C311.711 238.132 312.333 245.239 308.333 250.005C304.334 254.771 297.227 255.393 292.461 251.393L262.269 226.059C257.502 222.059 256.881 214.954 260.88 210.187Z" fill="#FFD15B"/>
<path d="M260.88 210.187C264.88 205.42 271.987 204.798 276.753 208.798L306.945 234.132C311.711 238.132 312.333 245.239 308.333 250.005C304.334 254.771 297.227 255.393 292.461 251.393L262.269 226.059C257.502 222.059 256.881 214.954 260.88 210.187Z" fill="#FFD15B"/>
<path d="M74.6753 53.9426C78.6751 49.1763 85.7815 48.5543 90.5478 52.5542L120.74 77.8882C125.506 81.8881 126.128 88.9945 122.128 93.7608C118.128 98.527 111.022 99.149 106.256 95.1491L76.0637 69.8151C71.2974 65.8152 70.6754 58.7088 74.6753 53.9426V53.9426Z" fill="#FFD15B"/>
<path d="M289.536 35.144C294.302 39.1439 294.924 46.2503 290.925 51.0165L265.59 81.2087C261.591 85.975 254.484 86.5969 249.718 82.5971C244.952 78.5972 244.33 71.4908 248.33 66.7246L273.664 36.5324C277.663 31.7662 284.77 31.1442 289.536 35.144V35.144Z" fill="#FFD15B"/>
<path d="M190.868 238.611C197.067 238.068 202.531 242.654 203.074 248.852L206.509 288.115C207.052 294.314 202.466 299.778 196.268 300.321C190.069 300.863 184.605 296.277 184.062 290.079L180.627 250.816C180.084 244.617 184.669 239.152 190.868 238.611V238.611Z" fill="#FFD15B"/>
<path d="M92.7533 156.285C93.2959 162.484 88.71 167.948 82.512 168.491L43.249 171.926C37.0501 172.469 31.5859 167.883 31.0432 161.685C30.5006 155.486 35.0865 150.022 41.2845 149.479L80.5475 146.044C86.7464 145.501 92.2114 150.086 92.7533 156.285Z" fill="#FFD15B"/>
<path d="M84.9424 265.22C80.1761 261.22 79.5541 254.114 83.554 249.348L108.888 219.156C112.888 214.389 119.994 213.767 124.761 217.767C129.527 221.767 130.149 228.873 126.149 233.64L100.815 263.832C96.815 268.598 89.7086 269.22 84.9424 265.22V265.22Z" fill="#FFD15B"/>
<rect x="125" y="31" width="121" height="31" rx="15.5" fill="#ABABAB" fill-opacity="0.8"/>
<rect x="121" y="115" width="294" height="31" rx="15.5" fill="#ABABAB" fill-opacity="0.8"/>
<rect x="72" y="204" width="280" height="31" rx="15.5" fill="#ABABAB" fill-opacity="0.8"/>
<rect x="31" y="72" width="251" height="31" rx="15.5" fill="#636363" fill-opacity="0.8"/>
<rect y="159" width="311" height="31" rx="15.5" fill="#636363" fill-opacity="0.8"/>
<rect x="115" y="249" width="196" height="31" rx="15.5" fill="#636363" fill-opacity="0.8"/>
</svg>
