<svg width="347" height="225" viewBox="0 0 347 225" fill="none" xmlns="http://www.w3.org/2000/svg">
<path d="M300.511 123.717C303.38 83.5402 266.389 52.5708 227.557 61.9973C219.684 26.5263 188.044 0 150.203 0C105.356 0 69.1938 37.266 71.0347 82.5175C32.2793 82.3814 0 113.904 0 153.478C0 191.747 30.2948 222.936 68.2104 224.382V224.44H296.172C324.04 224.44 346.632 201.848 346.632 173.98C346.632 147.573 326.346 125.918 300.511 123.717V123.717Z" fill="#D8ECFE"/>
<path d="M300.511 123.717C303.381 83.5402 266.389 52.5708 227.557 61.9973C219.684 26.5263 188.045 0 150.203 0C140.527 0 131.257 1.7382 122.684 4.91403C159.751 5.713 190.549 31.9479 198.301 66.8737C237.133 57.4472 274.124 88.4166 271.255 128.593C297.091 130.795 317.376 152.449 317.376 178.855C317.376 198.972 305.602 216.335 288.571 224.44H296.172C324.04 224.44 346.632 201.848 346.632 173.98C346.633 147.573 326.346 125.918 300.511 123.717Z" fill="#C4E2FF"/>
<path d="M174.96 143.296C182.309 146.208 188.272 150.645 192.848 156.608C197.562 162.571 199.92 170.267 199.92 179.696C199.92 196.197 195.205 207.707 185.776 214.224C176.346 220.741 165.114 224 152.08 224H100.288C96.6823 224 93.6316 222.821 91.1356 220.464C88.7783 217.968 87.5996 214.917 87.5996 211.312V91.0879C87.5996 87.4826 88.7783 84.5012 91.1356 82.1439C93.6316 79.6479 96.6823 78.3999 100.288 78.3999H152.704C179.05 78.3999 192.224 90.7412 192.224 115.424C192.224 121.664 190.698 127.211 187.648 132.064C184.736 136.779 180.506 140.523 174.96 143.296ZM165.184 120C165.184 114.315 163.728 110.085 160.816 107.312C158.042 104.4 154.09 102.944 148.96 102.944H114.64V135.392H149.584C153.744 135.392 157.349 134.005 160.4 131.232C163.589 128.459 165.184 124.715 165.184 120ZM152.08 200.08C158.597 200.08 163.658 198.347 167.264 194.88C171.008 191.413 172.88 186.352 172.88 179.696C172.88 171.515 170.73 166.176 166.432 163.68C162.133 161.184 156.864 159.936 150.624 159.936H114.64V200.08H152.08Z" fill="#252525"/>
</svg>
