<svg width="384" height="321" viewBox="0 0 384 321" fill="none" xmlns="http://www.w3.org/2000/svg">
<path d="M368 144.004H48.808L171.032 27.5879C177.432 21.4919 177.68 11.3639 171.584 4.9639C165.496 -1.4281 155.368 -1.6841 148.96 4.4119L9.376 137.372C3.336 143.42 0 151.452 0 160.004C0 168.548 3.336 176.588 9.656 182.9L148.968 315.588C152.064 318.54 156.032 320.004 160 320.004C164.224 320.004 168.448 318.34 171.592 315.036C177.688 308.636 177.44 298.516 171.04 292.42L48.304 176.004H368C376.832 176.004 384 168.836 384 160.004C384 151.172 376.832 144.004 368 144.004V144.004Z" fill="white"/>
</svg>
