<svg width="347" height="225" viewBox="0 0 347 225" fill="none" xmlns="http://www.w3.org/2000/svg">
<path d="M300.511 123.716C303.38 83.5402 266.389 52.5708 227.557 61.9973C219.684 26.5263 188.044 0 150.203 0C105.356 0 69.1938 37.266 71.0347 82.5175C32.2793 82.3814 0 113.904 0 153.478C0 191.747 30.2948 222.936 68.2104 224.382V224.44H296.172C324.04 224.44 346.632 201.848 346.632 173.98C346.632 147.573 326.346 125.918 300.511 123.716Z" fill="#D8ECFE"/>
<path d="M300.511 123.716C303.381 83.5402 266.389 52.5708 227.557 61.9973C219.684 26.5263 188.045 0 150.203 0C140.527 0 131.257 1.7382 122.684 4.91403C159.751 5.713 190.549 31.9479 198.301 66.8737C237.133 57.4472 274.124 88.4166 271.255 128.593C297.091 130.795 317.376 152.449 317.376 178.855C317.376 198.972 305.602 216.335 288.571 224.44H296.172C324.04 224.44 346.632 201.848 346.632 173.98C346.633 147.573 326.346 125.918 300.511 123.716Z" fill="#C4E2FF"/>
<path d="M118.778 171.789C123.554 173.709 127.43 176.634 130.404 180.566C133.468 184.497 135 189.571 135 195.789C135 206.669 131.936 214.257 125.807 218.554C119.679 222.851 112.379 225 103.907 225H70.2463C67.9031 225 65.9204 224.223 64.2981 222.669C62.766 221.023 62 219.011 62 216.634V137.366C62 134.989 62.766 133.023 64.2981 131.469C65.9204 129.823 67.9031 129 70.2463 129H104.313C121.436 129 129.998 137.137 129.998 153.411C129.998 157.526 129.007 161.183 127.024 164.383C125.131 167.491 122.383 169.96 118.778 171.789ZM112.424 156.429C112.424 152.68 111.478 149.891 109.585 148.063C107.783 146.143 105.214 145.183 101.88 145.183H79.5741V166.577H102.285C104.989 166.577 107.332 165.663 109.315 163.834C111.388 162.006 112.424 159.537 112.424 156.429ZM103.907 209.229C108.143 209.229 111.433 208.086 113.776 205.8C116.209 203.514 117.426 200.177 117.426 195.789C117.426 190.394 116.029 186.874 113.235 185.229C110.441 183.583 107.017 182.76 102.961 182.76H79.5741V209.229H103.907Z" fill="#252525"/>
<path d="M163 203.72C163.347 203.72 163.627 203.827 163.84 204.04C164.08 204.253 164.2 204.547 164.2 204.92C164.2 204.947 164.16 205.12 164.08 205.44L157.92 223.84C157.787 224.08 157.613 224.28 157.4 224.44C157.187 224.573 156.96 224.627 156.72 224.6C156.48 224.6 156.267 224.533 156.08 224.4C155.893 224.267 155.747 224.08 155.64 223.84L150.4 211.52L145.72 223.84C145.613 224.053 145.453 224.24 145.24 224.4C145.053 224.533 144.853 224.6 144.64 224.6C144.373 224.627 144.12 224.573 143.88 224.44C143.667 224.28 143.52 224.08 143.44 223.84L137.12 205.44C137.04 205.28 137 205.107 137 204.92C137 204.573 137.12 204.293 137.36 204.08C137.6 203.84 137.893 203.72 138.24 203.72C138.48 203.72 138.693 203.8 138.88 203.96C139.093 204.093 139.24 204.28 139.32 204.52L144.64 220.48L149.4 208.52C149.587 208.013 149.96 207.76 150.52 207.76C151.053 207.76 151.427 208.013 151.64 208.52L156.64 220.4L161.88 204.52C162.04 203.987 162.413 203.72 163 203.72Z" fill="#252525"/>
<path d="M186.078 213.2C186.078 213.52 185.958 213.8 185.718 214.04C185.478 214.253 185.198 214.36 184.878 214.36H169.758C169.758 215.96 170.078 217.4 170.718 218.68C171.385 219.933 172.318 220.933 173.518 221.68C174.745 222.4 176.185 222.76 177.838 222.76C179.118 222.76 180.265 222.493 181.278 221.96C182.291 221.427 183.105 220.747 183.718 219.92C184.011 219.68 184.291 219.56 184.558 219.56C184.825 219.56 185.065 219.667 185.278 219.88C185.491 220.093 185.598 220.333 185.598 220.6C185.598 220.893 185.465 221.173 185.198 221.44C184.345 222.48 183.265 223.333 181.958 224C180.678 224.667 179.318 225 177.878 225C175.825 225 174.011 224.56 172.438 223.68C170.865 222.8 169.638 221.573 168.758 220C167.878 218.4 167.438 216.56 167.438 214.48C167.438 212.293 167.865 210.387 168.718 208.76C169.598 207.107 170.758 205.853 172.198 205C173.638 204.12 175.171 203.68 176.798 203.68C178.398 203.68 179.891 204.053 181.278 204.8C182.691 205.547 183.838 206.64 184.718 208.08C185.598 209.52 186.051 211.227 186.078 213.2ZM176.798 206C175.251 206 173.811 206.533 172.478 207.6C171.171 208.667 170.331 210.2 169.958 212.2H183.598V211.88C183.465 210.68 183.065 209.64 182.398 208.76C181.731 207.853 180.891 207.173 179.878 206.72C178.891 206.24 177.865 206 176.798 206Z" fill="#252525"/>
<path d="M207.781 204.16C208.128 204.16 208.408 204.28 208.621 204.52C208.861 204.76 208.981 205.053 208.981 205.4V223.4C208.981 223.747 208.861 224.04 208.621 224.28C208.408 224.493 208.128 224.6 207.781 224.6C207.434 224.6 207.141 224.493 206.901 224.28C206.688 224.04 206.581 223.747 206.581 223.4V220.72C205.914 221.92 204.914 222.933 203.581 223.76C202.248 224.587 200.794 225 199.221 225C197.434 225 195.821 224.533 194.381 223.6C192.968 222.667 191.848 221.387 191.021 219.76C190.221 218.133 189.821 216.307 189.821 214.28C189.821 212.253 190.234 210.44 191.061 208.84C191.888 207.213 193.008 205.947 194.421 205.04C195.861 204.133 197.448 203.68 199.181 203.68C200.781 203.68 202.248 204.067 203.581 204.84C204.914 205.613 205.914 206.627 206.581 207.88V205.4C206.581 205.053 206.688 204.76 206.901 204.52C207.141 204.28 207.434 204.16 207.781 204.16ZM199.461 222.76C200.848 222.76 202.088 222.4 203.181 221.68C204.301 220.933 205.168 219.92 205.781 218.64C206.421 217.333 206.741 215.88 206.741 214.28C206.741 212.733 206.421 211.32 205.781 210.04C205.168 208.76 204.301 207.76 203.181 207.04C202.088 206.293 200.848 205.92 199.461 205.92C198.074 205.92 196.821 206.28 195.701 207C194.608 207.72 193.741 208.72 193.101 210C192.488 211.253 192.181 212.68 192.181 214.28C192.181 215.88 192.488 217.333 193.101 218.64C193.714 219.92 194.568 220.933 195.661 221.68C196.781 222.4 198.048 222.76 199.461 222.76Z" fill="#252525"/>
<path d="M219.243 206.48V219.88C219.243 220.893 219.43 221.587 219.803 221.96C220.177 222.307 220.67 222.48 221.283 222.48C221.443 222.48 221.643 222.453 221.883 222.4C222.123 222.32 222.31 222.28 222.443 222.28C222.683 222.28 222.883 222.387 223.043 222.6C223.23 222.787 223.323 223.013 223.323 223.28C223.323 223.653 223.11 223.973 222.683 224.24C222.257 224.48 221.75 224.6 221.163 224.6C220.443 224.6 219.803 224.533 219.243 224.4C218.683 224.267 218.137 223.867 217.603 223.2C217.097 222.533 216.843 221.467 216.843 220V206.48H213.923C213.603 206.48 213.323 206.373 213.083 206.16C212.87 205.947 212.763 205.68 212.763 205.36C212.763 205.04 212.87 204.773 213.083 204.56C213.323 204.347 213.603 204.24 213.923 204.24H216.843V199.8C216.843 199.453 216.95 199.173 217.163 198.96C217.403 198.72 217.697 198.6 218.043 198.6C218.39 198.6 218.67 198.72 218.883 198.96C219.123 199.173 219.243 199.453 219.243 199.8V204.24H223.243C223.537 204.24 223.79 204.36 224.003 204.6C224.243 204.84 224.363 205.107 224.363 205.4C224.363 205.72 224.257 205.987 224.043 206.2C223.83 206.387 223.563 206.48 223.243 206.48H219.243Z" fill="#252525"/>
<path d="M238.118 204C240.518 204 242.305 204.76 243.478 206.28C244.651 207.773 245.238 209.707 245.238 212.08V223.4C245.238 223.747 245.118 224.04 244.878 224.28C244.665 224.493 244.385 224.6 244.038 224.6C243.691 224.6 243.398 224.493 243.158 224.28C242.945 224.04 242.838 223.747 242.838 223.4V212.08C242.838 210.347 242.425 208.947 241.598 207.88C240.771 206.787 239.478 206.24 237.718 206.24C236.598 206.24 235.531 206.507 234.518 207.04C233.531 207.573 232.731 208.293 232.118 209.2C231.505 210.08 231.198 211.04 231.198 212.08V223.4C231.198 223.747 231.078 224.04 230.838 224.28C230.625 224.493 230.345 224.6 229.998 224.6C229.651 224.6 229.358 224.493 229.118 224.28C228.905 224.04 228.798 223.747 228.798 223.4V196.2C228.798 195.853 228.905 195.573 229.118 195.36C229.358 195.12 229.651 195 229.998 195C230.345 195 230.625 195.12 230.838 195.36C231.078 195.573 231.198 195.853 231.198 196.2V207.92C231.918 206.773 232.918 205.84 234.198 205.12C235.478 204.373 236.785 204 238.118 204Z" fill="#252525"/>
<path d="M268.812 213.2C268.812 213.52 268.693 213.8 268.452 214.04C268.212 214.253 267.933 214.36 267.613 214.36H252.493C252.493 215.96 252.812 217.4 253.452 218.68C254.119 219.933 255.053 220.933 256.253 221.68C257.479 222.4 258.919 222.76 260.573 222.76C261.853 222.76 262.999 222.493 264.013 221.96C265.026 221.427 265.839 220.747 266.452 219.92C266.746 219.68 267.026 219.56 267.292 219.56C267.559 219.56 267.799 219.667 268.012 219.88C268.226 220.093 268.333 220.333 268.333 220.6C268.333 220.893 268.199 221.173 267.932 221.44C267.079 222.48 265.999 223.333 264.692 224C263.412 224.667 262.053 225 260.613 225C258.559 225 256.746 224.56 255.173 223.68C253.599 222.8 252.372 221.573 251.493 220C250.613 218.4 250.173 216.56 250.173 214.48C250.173 212.293 250.599 210.387 251.452 208.76C252.332 207.107 253.493 205.853 254.933 205C256.373 204.12 257.906 203.68 259.533 203.68C261.132 203.68 262.626 204.053 264.013 204.8C265.426 205.547 266.572 206.64 267.452 208.08C268.333 209.52 268.786 211.227 268.812 213.2ZM259.533 206C257.986 206 256.546 206.533 255.213 207.6C253.906 208.667 253.066 210.2 252.692 212.2H266.333V211.88C266.199 210.68 265.799 209.64 265.133 208.76C264.466 207.853 263.626 207.173 262.613 206.72C261.626 206.24 260.599 206 259.533 206Z" fill="#252525"/>
<path d="M283.319 203.68C283.852 203.68 284.332 203.787 284.759 204C285.186 204.213 285.399 204.533 285.399 204.96C285.399 205.333 285.292 205.64 285.079 205.88C284.866 206.093 284.612 206.2 284.319 206.2C284.186 206.2 283.919 206.133 283.519 206C283.146 205.867 282.786 205.8 282.439 205.8C281.452 205.8 280.466 206.187 279.479 206.96C278.519 207.707 277.719 208.68 277.079 209.88C276.466 211.08 276.159 212.293 276.159 213.52V223.4C276.159 223.747 276.039 224.04 275.799 224.28C275.586 224.493 275.306 224.6 274.959 224.6C274.612 224.6 274.319 224.493 274.079 224.28C273.866 224.04 273.759 223.747 273.759 223.4V205.48C273.759 205.133 273.866 204.853 274.079 204.64C274.319 204.4 274.612 204.28 274.959 204.28C275.306 204.28 275.586 204.4 275.799 204.64C276.039 204.853 276.159 205.133 276.159 205.48V209C276.772 207.48 277.692 206.227 278.919 205.24C280.172 204.227 281.639 203.707 283.319 203.68Z" fill="#252525"/>
</svg>
