<svg width="512" height="360" viewBox="0 0 512 360" fill="none" xmlns="http://www.w3.org/2000/svg">
<path d="M118.114 117.114C123.972 111.256 123.972 101.759 118.114 95.901L96.9 74.688C91.043 68.831 81.545 68.83 75.687 74.688C69.829 80.546 69.829 90.043 75.687 95.901L96.901 117.114C102.76 122.973 112.258 122.972 118.114 117.114ZM256 60C264.284 60 271 53.284 271 45V15C271 6.716 264.284 0 256 0C247.716 0 241 6.716 241 15V45C241 53.284 247.716 60 256 60ZM46 240H15C6.716 240 0 246.716 0 255C0 263.284 6.716 270 15 270H46C54.284 270 61 263.284 61 255C61 246.716 54.284 240 46 240ZM256 90C165.019 90 91 164.019 91 255C91 291.035 102.41 325.271 123.996 354.009H388.004C409.59 325.271 421 291.035 421 255C421 164.019 346.981 90 256 90ZM497 240H466C457.716 240 451 246.716 451 255C451 263.284 457.716 270 466 270H497C505.284 270 512 263.284 512 255C512 246.716 505.284 240 497 240ZM415.1 74.688L393.886 95.901C388.028 101.759 388.028 111.256 393.886 117.114C399.743 122.972 409.241 122.971 415.099 117.114L436.313 95.901C442.171 90.043 442.171 80.546 436.313 74.688C430.456 68.83 420.958 68.831 415.1 74.688Z" fill="url(#paint0_linear)"/>
<path d="M497 330H15C6.716 330 0 336.716 0 345C0 353.284 6.716 360 15 360H497C505.284 360 512 353.284 512 345C512 336.716 505.284 330 497 330Z" fill="url(#paint1_linear)"/>
<path d="M251.05 283.95C253.784 286.683 258.216 286.683 260.95 283.95L305.497 239.402C308.231 236.668 308.231 232.236 305.497 229.503C302.764 226.769 298.332 226.769 295.598 229.503L256 269.101L216.402 229.503C213.668 226.769 209.236 226.769 206.503 229.503C203.769 232.236 203.769 236.668 206.503 239.402L251.05 283.95ZM249 157L249 279L263 279L263 157L249 157Z" fill="#484848"/>
<defs>
<linearGradient id="paint0_linear" x1="256" y1="354.009" x2="256" y2="0" gradientUnits="userSpaceOnUse">
<stop stop-color="#FD5900"/>
<stop offset="1" stop-color="#FFDE00"/>
</linearGradient>
<linearGradient id="paint1_linear" x1="256" y1="360" x2="256" y2="330" gradientUnits="userSpaceOnUse">
<stop stop-color="#FFE59A"/>
<stop offset="1" stop-color="#FFFFD5"/>
</linearGradient>
</defs>
</svg>
